<svg xmlns="http://www.w3.org/2000/svg" xmlns:xlink="http://www.w3.org/1999/xlink" contentStyleType="text/css" data-diagram-type="DESCRIPTION" height="889px" preserveAspectRatio="none" style="width:1135px;height:889px;background:#FFFFFF;" version="1.1" viewBox="0 0 1135 889" width="1135px" zoomAndPan="magnify"><defs/><g><!--cluster Hardware Layer--><g id="cluster_Hardware Layer"><rect fill="#E8EAF6" height="95" rx="9" ry="9" style="stroke:#1A237E;stroke-width:1;" width="339" x="311" y="7"/><text fill="#000000" font-family="Segoe UI" font-size="13" font-weight="bold" lengthAdjust="spacing" textLength="116.6636" x="422.1682" y="21.0669">Hardware Layer</text></g><!--cluster Control Layer--><g id="cluster_Control Layer"><rect fill="#E8EAF6" height="250.5" rx="9" ry="9" style="stroke:#1A237E;stroke-width:1;" width="184" x="481" y="162.5"/><text fill="#000000" font-family="Segoe UI" font-size="13" font-weight="bold" lengthAdjust="spacing" textLength="99.0234" x="523.4883" y="176.5669">Control Layer</text></g><!--cluster Processing Layer--><g id="cluster_Processing Layer"><rect fill="#E8EAF6" height="420" rx="9" ry="9" style="stroke:#1A237E;stroke-width:1;" width="202" x="7" y="463"/><text fill="#000000" font-family="Segoe UI" font-size="13" font-weight="bold" lengthAdjust="spacing" textLength="125.1694" x="45.4153" y="477.0669">Processing Layer</text></g><!--cluster Storage Layer--><g id="cluster_Storage Layer"><rect fill="#E8EAF6" height="95" rx="9" ry="9" style="stroke:#1A237E;stroke-width:1;" width="166" x="277" y="463"/><text fill="#000000" font-family="Segoe UI" font-size="13" font-weight="bold" lengthAdjust="spacing" textLength="103.0986" x="308.4507" y="477.0669">Storage Layer</text></g><!--cluster User Interface--><g id="cluster_User Interface"><rect fill="#E8EAF6" height="95" rx="9" ry="9" style="stroke:#1A237E;stroke-width:1;" width="618" x="511" y="463"/><text fill="#000000" font-family="Segoe UI" font-size="13" font-weight="bold" lengthAdjust="spacing" textLength="104.5332" x="767.7334" y="477.0669">User Interface</text></g><!--entity drone--><g id="elem_drone"><rect fill="#FFFFFF" height="45.1328" rx="9" ry="9" style="stroke:#1A237E;stroke-width:0.5;" width="114.7944" x="518.5" y="41"/><rect fill="#FFFFFF" height="10" style="stroke:#1A237E;stroke-width:0.5;" width="15" x="613.2944" y="46"/><rect fill="#FFFFFF" height="2" style="stroke:#1A237E;stroke-width:0.5;" width="4" x="611.2944" y="48"/><rect fill="#FFFFFF" height="2" style="stroke:#1A237E;stroke-width:0.5;" width="4" x="611.2944" y="52"/><text fill="#000000" font-family="Segoe UI" font-size="13" lengthAdjust="spacing" textLength="74.7944" x="533.5" y="73.0669">Tello Drone</text></g><!--entity camera--><g id="elem_camera"><rect fill="#FFFFFF" height="45.1328" rx="9" ry="9" style="stroke:#1A237E;stroke-width:0.5;" width="91.0161" x="327.5" y="41"/><rect fill="#FFFFFF" height="10" style="stroke:#1A237E;stroke-width:0.5;" width="15" x="398.5161" y="46"/><rect fill="#FFFFFF" height="2" style="stroke:#1A237E;stroke-width:0.5;" width="4" x="396.5161" y="48"/><rect fill="#FFFFFF" height="2" style="stroke:#1A237E;stroke-width:0.5;" width="4" x="396.5161" y="52"/><text fill="#000000" font-family="Segoe UI" font-size="13" lengthAdjust="spacing" textLength="51.0161" x="342.5" y="73.0669">Camera</text></g><!--entity telloManager--><g id="elem_telloManager"><rect fill="#FFFFFF" height="45.1328" rx="9" ry="9" style="stroke:#1A237E;stroke-width:0.5;" width="132.2314" x="517" y="196.5"/><rect fill="#FFFFFF" height="10" style="stroke:#1A237E;stroke-width:0.5;" width="15" x="629.2314" y="201.5"/><rect fill="#FFFFFF" height="2" style="stroke:#1A237E;stroke-width:0.5;" width="4" x="627.2314" y="203.5"/><rect fill="#FFFFFF" height="2" style="stroke:#1A237E;stroke-width:0.5;" width="4" x="627.2314" y="207.5"/><text fill="#000000" font-family="Segoe UI" font-size="13" lengthAdjust="spacing" textLength="92.2314" x="532" y="228.5669">Tello Manager</text></g><!--entity cameraManager--><g id="elem_cameraManager"><rect fill="#FFFFFF" height="45.1328" rx="9" ry="9" style="stroke:#1A237E;stroke-width:0.5;" width="152.1313" x="497" y="352"/><rect fill="#FFFFFF" height="10" style="stroke:#1A237E;stroke-width:0.5;" width="15" x="629.1313" y="357"/><rect fill="#FFFFFF" height="2" style="stroke:#1A237E;stroke-width:0.5;" width="4" x="627.1313" y="359"/><rect fill="#FFFFFF" height="2" style="stroke:#1A237E;stroke-width:0.5;" width="4" x="627.1313" y="363"/><text fill="#000000" font-family="Segoe UI" font-size="13" lengthAdjust="spacing" textLength="112.1313" x="512" y="384.0669">Camera Manager</text></g><!--entity preprocessor--><g id="elem_preprocessor"><rect fill="#FFFFFF" height="45.1328" rx="9" ry="9" style="stroke:#1A237E;stroke-width:0.5;" width="169.5684" x="23" y="497"/><rect fill="#FFFFFF" height="10" style="stroke:#1A237E;stroke-width:0.5;" width="15" x="172.5684" y="502"/><rect fill="#FFFFFF" height="2" style="stroke:#1A237E;stroke-width:0.5;" width="4" x="170.5684" y="504"/><rect fill="#FFFFFF" height="2" style="stroke:#1A237E;stroke-width:0.5;" width="4" x="170.5684" y="508"/><text fill="#000000" font-family="Segoe UI" font-size="13" lengthAdjust="spacing" textLength="129.5684" x="38" y="529.0669">Image Preprocessor</text></g><!--entity ganProcessor--><g id="elem_ganProcessor"><rect fill="#FFFFFF" height="45.1328" rx="9" ry="9" style="stroke:#1A237E;stroke-width:0.5;" width="140.5278" x="51.5" y="659.5"/><rect fill="#FFFFFF" height="10" style="stroke:#1A237E;stroke-width:0.5;" width="15" x="172.0278" y="664.5"/><rect fill="#FFFFFF" height="2" style="stroke:#1A237E;stroke-width:0.5;" width="4" x="170.0278" y="666.5"/><rect fill="#FFFFFF" height="2" style="stroke:#1A237E;stroke-width:0.5;" width="4" x="170.0278" y="670.5"/><text fill="#000000" font-family="Segoe UI" font-size="13" lengthAdjust="spacing" textLength="100.5278" x="66.5" y="691.5669">Processing Unit</text></g><!--entity outputHandler--><g id="elem_outputHandler"><rect fill="#FFFFFF" height="45.1328" rx="9" ry="9" style="stroke:#1A237E;stroke-width:0.5;" width="140.4771" x="52" y="822"/><rect fill="#FFFFFF" height="10" style="stroke:#1A237E;stroke-width:0.5;" width="15" x="172.4771" y="827"/><rect fill="#FFFFFF" height="2" style="stroke:#1A237E;stroke-width:0.5;" width="4" x="170.4771" y="829"/><rect fill="#FFFFFF" height="2" style="stroke:#1A237E;stroke-width:0.5;" width="4" x="170.4771" y="833"/><text fill="#000000" font-family="Segoe UI" font-size="13" lengthAdjust="spacing" textLength="100.4771" x="67" y="854.0669">Output Handler</text></g><!--entity modelStorage--><g id="elem_modelStorage"><rect fill="#FFFFFF" height="45.1328" rx="9" ry="9" style="stroke:#1A237E;stroke-width:0.5;" width="134.0278" x="293" y="497"/><rect fill="#FFFFFF" height="10" style="stroke:#1A237E;stroke-width:0.5;" width="15" x="407.0278" y="502"/><rect fill="#FFFFFF" height="2" style="stroke:#1A237E;stroke-width:0.5;" width="4" x="405.0278" y="504"/><rect fill="#FFFFFF" height="2" style="stroke:#1A237E;stroke-width:0.5;" width="4" x="405.0278" y="508"/><text fill="#000000" font-family="Segoe UI" font-size="13" lengthAdjust="spacing" textLength="94.0278" x="308" y="529.0669">Model Storage</text></g><!--entity ui--><g id="elem_ui"><rect fill="#FFFFFF" height="45.1328" rx="9" ry="9" style="stroke:#1A237E;stroke-width:0.5;" width="131.9648" x="729" y="497"/><rect fill="#FFFFFF" height="10" style="stroke:#1A237E;stroke-width:0.5;" width="15" x="840.9648" y="502"/><rect fill="#FFFFFF" height="2" style="stroke:#1A237E;stroke-width:0.5;" width="4" x="838.9648" y="504"/><rect fill="#FFFFFF" height="2" style="stroke:#1A237E;stroke-width:0.5;" width="4" x="838.9648" y="508"/><text fill="#000000" font-family="Segoe UI" font-size="13" lengthAdjust="spacing" textLength="91.9648" x="744" y="529.0669">User Interface</text></g><!--entity liveFeed--><g id="elem_liveFeed"><rect fill="#FFFFFF" height="45.1328" rx="9" ry="9" style="stroke:#1A237E;stroke-width:0.5;" width="102.4038" x="527" y="497"/><rect fill="#FFFFFF" height="10" style="stroke:#1A237E;stroke-width:0.5;" width="15" x="609.4038" y="502"/><rect fill="#FFFFFF" height="2" style="stroke:#1A237E;stroke-width:0.5;" width="4" x="607.4038" y="504"/><rect fill="#FFFFFF" height="2" style="stroke:#1A237E;stroke-width:0.5;" width="4" x="607.4038" y="508"/><text fill="#000000" font-family="Segoe UI" font-size="13" lengthAdjust="spacing" textLength="62.4038" x="542" y="529.0669">Live Feed</text></g><!--entity realtimeOutput--><g id="elem_realtimeOutput"><rect fill="#FFFFFF" height="45.1328" rx="9" ry="9" style="stroke:#1A237E;stroke-width:0.5;" width="151.96" x="961" y="497"/><rect fill="#FFFFFF" height="10" style="stroke:#1A237E;stroke-width:0.5;" width="15" x="1092.96" y="502"/><rect fill="#FFFFFF" height="2" style="stroke:#1A237E;stroke-width:0.5;" width="4" x="1090.96" y="504"/><rect fill="#FFFFFF" height="2" style="stroke:#1A237E;stroke-width:0.5;" width="4" x="1090.96" y="508"/><text fill="#000000" font-family="Segoe UI" font-size="13" lengthAdjust="spacing" textLength="111.96" x="976" y="529.0669">Real-time Output</text></g><g id="elem_GMN30"><path d="M495,651 L495,686 L192.54,690 L495,694 L495,712.8438 A9,9 0 0 0 504,721.8438 L611.8125,721.8438 A9,9 0 0 0 620.8125,712.8438 L620.8125,652 L610.8125,642 L504,642 A9,9 0 0 0 495,651 " fill="#E8EAF6" style="stroke:#1A237E;stroke-width:0.5;"/><path d="M610.8125,642 L610.8125,647.5 A4.5,4.5 0 0 0 615.3125,652 L620.8125,652 L610.8125,642 " fill="#E8EAF6" style="stroke:#1A237E;stroke-width:0.5;"/><text fill="#1A237E" font-family="Segoe UI" font-size="12" font-weight="bold" lengthAdjust="spacing" textLength="104.8125" x="501" y="658.1387">GAN Processor:</text><text fill="#1A237E" font-family="Segoe UI" font-size="12" lengthAdjust="spacing" textLength="92.0508" x="501" y="672.1074">• Model Loader</text><text fill="#1A237E" font-family="Segoe UI" font-size="12" lengthAdjust="spacing" textLength="71.8301" x="501" y="686.0762">• Generator</text><text fill="#1A237E" font-family="Segoe UI" font-size="12" lengthAdjust="spacing" textLength="91.5469" x="501" y="700.0449">• Discriminator</text><text fill="#1A237E" font-family="Segoe UI" font-size="12" lengthAdjust="spacing" textLength="99.4102" x="501" y="714.0137">• Post-processor</text></g><g id="elem_GMN33"><path d="M749.5,195 L749.5,208 L649.13,212 L749.5,216 L749.5,242.875 A9,9 0 0 0 758.5,251.875 L891.3555,251.875 A9,9 0 0 0 900.3555,242.875 L900.3555,196 L890.3555,186 L758.5,186 A9,9 0 0 0 749.5,195 " fill="#E8EAF6" style="stroke:#1A237E;stroke-width:0.5;"/><path d="M890.3555,186 L890.3555,191.5 A4.5,4.5 0 0 0 894.8555,196 L900.3555,196 L890.3555,186 " fill="#E8EAF6" style="stroke:#1A237E;stroke-width:0.5;"/><text fill="#1A237E" font-family="Segoe UI" font-size="12" font-weight="bold" lengthAdjust="spacing" textLength="101.0977" x="755.5" y="202.1387">Tello Manager:</text><text fill="#1A237E" font-family="Segoe UI" font-size="12" lengthAdjust="spacing" textLength="129.8555" x="755.5" y="216.1074">• Connection Handler</text><text fill="#1A237E" font-family="Segoe UI" font-size="12" lengthAdjust="spacing" textLength="104.7363" x="755.5" y="230.0762">• Battery Monitor</text><text fill="#1A237E" font-family="Segoe UI" font-size="12" lengthAdjust="spacing" textLength="107.4961" x="755.5" y="244.0449">• Flight Controller</text></g><!--link drone to telloManager--><g id="link_drone_telloManager"><path d="M576,86.11 C576,115.59 576,160.87 576,190.36 " fill="transparent" id="drone-to-telloManager" style="stroke:#0D47A1;stroke-width:2;"/><polygon fill="#0D47A1" points="576,196.36,580,187.36,576,191.36,572,187.36,576,196.36" style="stroke:#0D47A1;stroke-width:2;"/><text fill="#000000" font-family="Segoe UI" font-size="13" lengthAdjust="spacing" textLength="54.0503" x="521" y="137.3069">Controls</text></g><!--link camera to cameraManager--><g id="link_camera_cameraManager"><path d="M418.74,64 C457.56,64 507,64 507,64 C507,64 507,274.47 507,345.92 " fill="transparent" id="camera-to-cameraManager" style="stroke:#0D47A1;stroke-width:2;"/><polygon fill="#0D47A1" points="507,351.92,511,342.92,507,346.92,503,342.92,507,351.92" style="stroke:#0D47A1;stroke-width:2;"/><text fill="#000000" font-family="Segoe UI" font-size="13" lengthAdjust="spacing" textLength="47.3218" x="459" y="159.8969">Stream</text></g><!--link telloManager to cameraManager--><g id="link_telloManager_cameraManager"><path d="M583,241.61 C583,271.09 583,316.37 583,345.86 " fill="transparent" id="telloManager-to-cameraManager" style="stroke:#0D47A1;stroke-width:2;"/><polygon fill="#0D47A1" points="583,351.86,587,342.86,583,346.86,579,342.86,583,351.86" style="stroke:#0D47A1;stroke-width:2;"/><text fill="#000000" font-family="Segoe UI" font-size="13" lengthAdjust="spacing" textLength="71.4937" x="511" y="292.8069">Coordinate</text></g><!--link cameraManager to preprocessor--><g id="link_cameraManager_preprocessor"><path d="M497,375 C365.15,375 108,375 108,375 C108,375 108,450.28 108,490.92 " fill="transparent" id="cameraManager-to-preprocessor" style="stroke:#0D47A1;stroke-width:2;"/><polygon fill="#0D47A1" points="108,496.92,112,487.92,108,491.92,104,487.92,108,496.92" style="stroke:#0D47A1;stroke-width:2;"/><text fill="#000000" font-family="Segoe UI" font-size="13" lengthAdjust="spacing" textLength="48.2231" x="192.54" y="371.0669">Frames</text></g><!--link preprocessor to ganProcessor--><g id="link_preprocessor_ganProcessor"><path d="M98.5,542.09 C98.5,573.05 98.5,622.34 98.5,653.34 " fill="transparent" id="preprocessor-to-ganProcessor" style="stroke:#0D47A1;stroke-width:2;"/><polygon fill="#0D47A1" points="98.5,659.34,102.5,650.34,98.5,654.34,94.5,650.34,98.5,659.34" style="stroke:#0D47A1;stroke-width:2;"/><text fill="#000000" font-family="Segoe UI" font-size="13" lengthAdjust="spacing" textLength="66.0791" x="27.5" y="581.7869">Processed</text><text fill="#000000" font-family="Segoe UI" font-size="13" lengthAdjust="spacing" textLength="48.2231" x="38.4941" y="596.9197">Frames</text></g><!--link ganProcessor to outputHandler--><g id="link_ganProcessor_outputHandler"><path d="M122,704.59 C122,735.55 122,784.84 122,815.84 " fill="transparent" id="ganProcessor-to-outputHandler" style="stroke:#0D47A1;stroke-width:2;"/><polygon fill="#0D47A1" points="122,821.84,126,812.84,122,816.84,118,812.84,122,821.84" style="stroke:#0D47A1;stroke-width:2;"/><text fill="#000000" font-family="Segoe UI" font-size="13" lengthAdjust="spacing" textLength="64.2954" x="53" y="744.2869">Enhanced</text><text fill="#000000" font-family="Segoe UI" font-size="13" lengthAdjust="spacing" textLength="47.4868" x="63.4705" y="759.4197">Images</text></g><!--link modelStorage to ganProcessor--><g id="link_modelStorage_ganProcessor"><path d="M360,542.11 C360,585.24 360,675 360,675 C360,675 268.92,675 198.76,675 " fill="transparent" id="modelStorage-to-ganProcessor" style="stroke:#0D47A1;stroke-width:2;"/><polygon fill="#0D47A1" points="192.76,675,201.76,679,197.76,675,201.76,671,192.76,675" style="stroke:#0D47A1;stroke-width:2;"/><text fill="#000000" font-family="Segoe UI" font-size="13" lengthAdjust="spacing" textLength="74.5786" x="267.83" y="671.0669">Load Model</text></g><!--link outputHandler to realtimeOutput--><g id="link_outputHandler_realtimeOutput"><path d="M192.28,845 C406.54,845 1037,845 1037,845 C1037,845 1037,621.95 1037,548.13 " fill="transparent" id="outputHandler-to-realtimeOutput" style="stroke:#0D47A1;stroke-width:2;"/><polygon fill="#0D47A1" points="1037,542.13,1033,551.13,1037,547.13,1041,551.13,1037,542.13" style="stroke:#0D47A1;stroke-width:2;"/><text fill="#000000" font-family="Segoe UI" font-size="13" lengthAdjust="spacing" textLength="47.9185" x="718.07" y="841.0669">Display</text></g><!--link cameraManager to liveFeed--><g id="link_cameraManager_liveFeed"><path d="M578,397.16 C578,424.24 578,463.3 578,490.52 " fill="transparent" id="cameraManager-to-liveFeed" style="stroke:#0D47A1;stroke-width:2;"/><polygon fill="#0D47A1" points="578,496.52,582,487.52,578,491.52,574,487.52,578,496.52" style="stroke:#0D47A1;stroke-width:2;"/><text fill="#000000" font-family="Segoe UI" font-size="13" lengthAdjust="spacing" textLength="47.3218" x="530" y="442.9069">Stream</text></g><!--link ui to telloManager--><g id="link_ui_telloManager"><path d="M742.67,496.55 C742.67,427.59 742.67,227 742.67,227 C742.67,227 699.19,227 655.33,227 " fill="transparent" id="ui-to-telloManager" style="stroke:#0D47A1;stroke-width:2;"/><polygon fill="#0D47A1" points="649.33,227,658.33,231,654.33,227,658.33,223,649.33,227" style="stroke:#0D47A1;stroke-width:2;"/><text fill="#000000" font-family="Segoe UI" font-size="13" lengthAdjust="spacing" textLength="73.5884" x="668.67" y="311.1669">Commands</text></g><!--link ui to cameraManager--><g id="link_ui_cameraManager"><path d="M735.83,496.92 C735.83,456.28 735.83,375 735.83,375 C735.83,375 697.55,375 655.17,375 " fill="transparent" id="ui-to-cameraManager" style="stroke:#0D47A1;stroke-width:2;"/><polygon fill="#0D47A1" points="649.17,375,658.17,379,654.17,375,658.17,371,649.17,375" style="stroke:#0D47A1;stroke-width:2;"/><text fill="#000000" font-family="Segoe UI" font-size="13" lengthAdjust="spacing" textLength="47.2773" x="687.83" y="388.6969">Control</text></g><!--link ui to ganProcessor--><g id="link_ui_ganProcessor"><path d="M795,542.04 C795,563.32 795,592 795,592 C795,592 145.5,592 145.5,592 C145.5,592 145.5,626.63 145.5,653.29 " fill="transparent" id="ui-to-ganProcessor" style="stroke:#0D47A1;stroke-width:2;"/><polygon fill="#0D47A1" points="145.5,659.29,149.5,650.29,145.5,654.29,141.5,650.29,145.5,659.29" style="stroke:#0D47A1;stroke-width:2;"/><text fill="#000000" font-family="Segoe UI" font-size="13" lengthAdjust="spacing" textLength="74.9912" x="386.58" y="588.0669">Parameters</text></g><!--SRC=[bLR1RXCn4BtlLup2eHSgce2WYagaq3PjfL8gGayj1tTtahNgjLUsboeW9Bw5J-DB67kzctMw2IMdPERvpVFuUPmzE9KvaobcO1wuX99fLg15RU2HsnmAbQ6Ma2gXD9Wqnm8J1_Guk6VfmrAhIcR77l1YvZyTHAgAKacKTcvN0g4gnAYJpN31Ac5dIjehAWk3EIuLmit5e1yqvzyHXgyxoP8Ki2NMx1fJo-HIu5F01wLf8q7bS3fw_Uwq1xIvdTF3q-diRTzsTlEjOVzi4DDQFORamScRTzFXPl9BpjC7YSP0DoMLVOPUZzefrI7MhHtrPBQjjDoApjB3ljIsjGANABF-kklSjjKcPvbwv7892oPCzxHzCrAb9UfOaU0IxQf4KDhcAjfbXWPB61uST7cOV6YYIR879xWWWiOduMvWUtF8VQGc2MaOd3ETFJADSCbMg0VDmS2F1EXp-mM5K72YoI9VWHd8tBVM6nvoJDT1CvzD_TSs_JDPrpcc9cabTfRvo2HXjQUoBX82VVKYS5rt4zqjVwrLIhvq1z6luA9mk6kDPOrKDNFP2SGoEemtabkFNZ9vtO_-LDcoid3EP2Q2QEL38T8hUcwLTb_w5NyaEmW86C_e9g1e5lKHtXYgT25fPYvOYayOuxIdh7YyZql-3M66cFcie5_kHupvZ4piMqv3ijwrXseAkbXeH4TTQrcDWbckfCbv6NnxZwooV569UgmRe6vv3wD9QYlktuPPzD8sm-VzwEl-93RGk3MW6IJ1fLjNncuQktCWzSKWYIYVl_nOqLZZabbiQl-J8x8TKSpSKqVIe_ZMrP4DnwtvwPpkPCCKOROonHubglO9lfF-nX1JvBfdQxfKB0DluK4ILzbAiM4X8ZdXfXHizUosjdxj72ev_3yyL1IaqknUrMC0RxtTgvuSMlltPk3ko3JBrbFSlNVj3R64QUUwou3cozo2MaIST3UFxYTdqojeG-EZL_SJYl_vzRi-2d2dWZg4pf3U9cPLyvkwdMfUE2UtiMjbx7vhoOHUGoyksH3IRMGj99huNI7KB4b_ZcWEDDCo93umjzCLAQLnsmgO2LyZjDYXrnhghlaNtW-E-hdUyYBk1U2HdpJZy9HFvYjZiO2fJdDkILUbyUYLXqp-0W00]--></g></svg>